{
    "asset" : {
        "generator" : "Khronos glTF Blender I/O v1.2.75",
        "version" : "2.0"
    },
    "scene" : 0,
    "scenes" : [
        {
            "name" : "Scene",
            "nodes" : [
                0,
                1
            ]
        }
    ],
    "nodes" : [
        {
            "mesh" : 0,
            "name" : "Sphere.012",
            "scale" : [
                0.5839807391166687,
                0.5839807391166687,
                0.5839807391166687
            ],
            "translation" : [
                0.47013652324676514,
                -3.084301233291626,
                -0.7250385880470276
            ]
        },
        {
            "mesh" : 1,
            "name" : "Sphere.013",
            "scale" : [
                0.5839807391166687,
                0.5839807391166687,
                0.5839807391166687
            ],
            "translation" : [
                -0.4292881488800049,
                -3.084301233291626,
                -0.7250385880470276
            ]
        }
    ],
    "materials" : [
        {
            "doubleSided" : true,
            "emissiveFactor" : [
                0,
                0,
                0
            ],
            "name" : "White",
            "pbrMetallicRoughness" : {
                "baseColorFactor" : [
                    1,
                    1,
                    1,
                    1
                ],
                "metallicFactor" : 0,
                "roughnessFactor" : 0.5
            }
        }
    ],
    "meshes" : [
        {
            "name" : "Sphere.012",
            "primitives" : [
                {
                    "attributes" : {
                        "POSITION" : 0,
                        "NORMAL" : 1,
                        "TEXCOORD_0" : 2
                    },
                    "indices" : 3,
                    "material" : 0
                }
            ]
        },
        {
            "name" : "Sphere.013",
            "primitives" : [
                {
                    "attributes" : {
                        "POSITION" : 4,
                        "NORMAL" : 5,
                        "TEXCOORD_0" : 6
                    },
                    "indices" : 3,
                    "material" : 0
                }
            ]
        }
    ],
    "accessors" : [
        {
            "bufferView" : 0,
            "componentType" : 5126,
            "count" : 559,
            "max" : [
                1.000000238418579,
                1,
                1.0000003576278687
            ],
            "min" : [
                -0.9999998211860657,
                -1,
                -1
            ],
            "type" : "VEC3"
        },
        {
            "bufferView" : 1,
            "componentType" : 5126,
            "count" : 559,
            "type" : "VEC3"
        },
        {
            "bufferView" : 2,
            "componentType" : 5126,
            "count" : 559,
            "type" : "VEC2"
        },
        {
            "bufferView" : 3,
            "componentType" : 5123,
            "count" : 2880,
            "type" : "SCALAR"
        },
        {
            "bufferView" : 4,
            "componentType" : 5126,
            "count" : 559,
            "max" : [
                1.000000238418579,
                1,
                1.0000003576278687
            ],
            "min" : [
                -0.9999998211860657,
                -1,
                -1
            ],
            "type" : "VEC3"
        },
        {
            "bufferView" : 5,
            "componentType" : 5126,
            "count" : 559,
            "type" : "VEC3"
        },
        {
            "bufferView" : 6,
            "componentType" : 5126,
            "count" : 559,
            "type" : "VEC2"
        }
    ],
    "bufferViews" : [
        {
            "buffer" : 0,
            "byteLength" : 6708,
            "byteOffset" : 0
        },
        {
            "buffer" : 0,
            "byteLength" : 6708,
            "byteOffset" : 6708
        },
        {
            "buffer" : 0,
            "byteLength" : 4472,
            "byteOffset" : 13416
        },
        {
            "buffer" : 0,
            "byteLength" : 5760,
            "byteOffset" : 17888
        },
        {
            "buffer" : 0,
            "byteLength" : 6708,
            "byteOffset" : 23648
        },
        {
            "buffer" : 0,
            "byteLength" : 6708,
            "byteOffset" : 30356
        },
        {
            "buffer" : 0,
            "byteLength" : 4472,
            "byteOffset" : 37064
        }
    ],
    "buffers" : [
        {
            "byteLength" : 41536,
            "uri" : "data:application/octet-stream;base64,"
        }
    ]
}
